<svg xmlns="http://www.w3.org/2000/svg" width="100%" height="100%" viewBox="0 0 320.506 67.359">
  <g id="Grupo_2" data-name="Grupo 2" transform="translate(0.506 -470)">
    <path id="Trazado_6" data-name="Trazado 6" d="M2601.566,427h320v59.727s-26.826-42.4-159.375-7.763-160.7,0-160.7,0Z" transform="translate(-2601.566 43)" fill="rgba(39,41,98,0.2)"/>
    <path id="Trazado_8" data-name="Trazado 8" d="M2601.566,433h320v53.727s-26.826-42.4-159.375-7.763-160.7,0-160.7,0Z" transform="translate(-2601.566 37)" fill="#e8edf2"/>
    <path id="Trazado_7" data-name="Trazado 7" d="M2921.566,437h-320l-.069,49.727s26.826-42.4,159.375-7.763,160.7,0,160.7,0Z" transform="translate(-2601.566 33)" fill="rgba(207,227,248,0.44)"/>
    <path id="Trazado_5" data-name="Trazado 5" d="M2602,470h320l-.434,42.326s-26.826-44.632-159.375-8.172-160.7,0-160.7,0Z" transform="translate(-2602)" fill="#ebf0f5"/>
  </g>
</svg>
